<?xml version="1.0" standalone="no"?>
<!DOCTYPE svg PUBLIC "-//W3C//DTD SVG 20010904//EN"
 "http://www.w3.org/TR/2001/REC-SVG-20010904/DTD/svg10.dtd">
<svg version="1.0" xmlns="http://www.w3.org/2000/svg"
 width="256.000000pt" height="108.000000pt" viewBox="0 0 256.000000 108.000000"
 preserveAspectRatio="xMidYMid meet">

<g transform="translate(0.000000,108.000000) scale(0.100000,-0.100000)"
fill="#000000" stroke="none">
<path d="M1600 994 c-132 -12 -296 -42 -610 -114 -211 -49 -228 -51 -350 -60
l-115 -8 150 3 c131 2 187 10 450 58 347 64 503 82 630 73 253 -17 385 -94
509 -295 63 -102 78 -162 58 -234 l-10 -37 31 0 32 0 -3 90 c-3 89 -3 89 38
160 23 39 55 86 72 105 l30 35 -31 0 c-23 0 -31 -4 -31 -18 0 -15 -77 -162
-93 -179 -3 -2 -27 33 -53 79 -97 164 -238 274 -406 317 -76 19 -220 31 -298
25z"/>
<path d="M75 575 l0 -195 34 0 c27 0 32 3 23 12 -8 8 -12 65 -12 190 l0 178
34 0 c22 0 45 -9 65 -26 27 -22 31 -33 31 -73 0 -48 -20 -79 -60 -94 -10 -4
-11 -6 -2 -6 25 -2 72 30 87 59 24 46 19 87 -14 121 -28 27 -35 29 -108 29
l-78 0 0 -195z"/>
<path d="M416 598 c-26 -67 -58 -144 -70 -170 l-23 -48 21 0 c15 0 22 7 24 23
1 13 8 40 17 61 l16 37 61 -3 62 -3 20 -57 c19 -53 24 -58 50 -58 27 0 28 1
14 18 -9 9 -41 79 -72 156 -31 76 -60 145 -65 153 -5 10 -22 -23 -55 -109z
m67 -1 c8 -23 18 -50 22 -59 6 -16 1 -18 -45 -18 -38 0 -51 4 -48 13 3 6 13
36 22 65 10 28 21 50 26 47 4 -3 15 -24 23 -48z"/>
<path d="M1991 699 c-6 -13 -37 -90 -69 -171 -48 -122 -56 -148 -42 -148 12 0
22 18 35 60 l18 60 62 0 63 0 22 -60 c17 -46 28 -62 47 -66 30 -8 40 1 21 20
-8 8 -43 83 -78 168 -34 84 -64 155 -66 157 -2 2 -8 -7 -13 -20z m44 -151 c7
-28 6 -28 -39 -28 -25 0 -46 4 -46 9 0 8 23 77 36 111 7 16 36 -39 49 -92z"/>
<path d="M718 559 c2 -105 -1 -155 -9 -165 -9 -12 -5 -14 25 -14 33 0 36 2 26
19 -5 11 -10 42 -10 70 l0 51 39 0 c36 0 43 -5 76 -50 54 -73 141 -147 220
-185 191 -94 368 -97 810 -14 265 50 390 69 462 70 l58 1 -50 9 c-76 14 -239
-6 -520 -63 -374 -75 -553 -77 -706 -9 -74 33 -162 104 -223 179 l-57 70 26
37 c34 50 33 97 -1 124 -21 17 -41 21 -98 21 l-71 0 3 -151z m122 131 c10 -5
23 -23 29 -40 24 -71 -19 -131 -82 -114 l-32 10 -3 77 -3 77 36 0 c20 0 45 -4
55 -10z"/>
<path d="M1070 696 c8 -11 11 -59 8 -165 l-3 -151 30 0 c22 0 26 3 17 12 -13
13 -17 148 -4 148 4 0 39 -32 77 -71 68 -69 115 -100 152 -98 15 0 13 3 -7 17
-14 9 -62 52 -108 96 l-82 80 52 54 c29 30 67 63 83 73 l30 19 -32 0 c-20 0
-33 -5 -33 -13 0 -14 -120 -137 -134 -137 -4 0 -6 34 -4 75 l3 75 -29 0 c-24
0 -26 -2 -16 -14z"/>
<path d="M1384 688 c7 -13 32 -86 56 -163 23 -77 45 -144 50 -148 4 -5 30 48
57 118 27 70 53 127 57 128 5 1 30 -53 55 -120 25 -67 49 -124 52 -128 3 -3
18 29 33 72 15 43 42 120 60 171 l34 92 -25 0 c-15 0 -22 -4 -17 -11 8 -14
-67 -262 -76 -252 -4 5 -26 62 -50 128 -24 66 -46 124 -50 128 -4 5 -31 -53
-60 -127 -29 -75 -55 -134 -57 -132 -10 9 -72 249 -67 257 3 5 -11 9 -31 9
-34 0 -35 -1 -21 -22z"/>
<path d="M60 215 c0 -25 5 -45 10 -45 6 0 10 20 10 45 0 25 -4 45 -10 45 -5 0
-10 -20 -10 -45z"/>
<path d="M103 242 c1 -14 5 -18 11 -12 7 7 6 14 -1 21 -9 9 -12 7 -10 -9z"/>
<path d="M180 215 c0 -27 3 -45 7 -42 7 8 6 77 -2 85 -3 3 -5 -16 -5 -43z"/>
<path d="M223 242 c1 -14 5 -18 11 -12 7 7 6 14 -1 21 -9 9 -12 7 -10 -9z"/>
<path d="M379 241 c7 -12 11 -32 8 -42 -3 -10 -1 -17 4 -13 15 9 10 51 -8 65
-15 13 -15 12 -4 -10z"/>
<path d="M470 208 c-3 -31 -1 -53 3 -49 5 5 7 30 5 57 l-3 49 -5 -57z"/>
<path d="M550 215 c0 -25 5 -45 10 -45 6 0 10 20 10 45 0 25 -4 45 -10 45 -5
0 -10 -20 -10 -45z"/>
<path d="M833 215 c0 -27 2 -38 4 -22 2 15 2 37 0 50 -2 12 -4 0 -4 -28z"/>
<path d="M307 243 c-13 -12 -7 -51 10 -64 15 -13 15 -12 4 9 -7 12 -9 32 -6
42 7 20 3 25 -8 13z"/>
<path d="M667 243 c-13 -12 -7 -51 10 -64 15 -13 15 -12 4 10 -7 12 -11 32 -8
42 5 20 4 23 -6 12z"/>
<path d="M930 238 c0 -8 11 -25 25 -38 14 -13 25 -20 25 -16 0 5 -11 21 -25
38 -14 16 -25 23 -25 16z"/>
<path d="M222 190 c7 -11 17 -20 22 -20 5 0 1 9 -9 20 -10 11 -20 20 -22 20
-2 0 2 -9 9 -20z"/>
</g>
</svg>
