<svg width="125" height="24" viewBox="0 0 125 24" fill="none" xmlns="http://www.w3.org/2000/svg">
<path d="M30.1092 18.4331C31.2504 18.4331 32.1117 18.1638 32.6929 17.6252C33.2742 17.0867 33.5649 16.3642 33.5649 15.4577C33.5649 14.7538 33.3729 14.1779 32.9889 13.73C32.6049 13.2821 32.173 13.0261 31.693 12.9621V12.8981C31.949 12.8555 32.2103 12.7195 32.477 12.4902C32.7436 12.2609 32.9409 11.9863 33.0689 11.6664C33.1969 11.3464 33.2609 11.0212 33.2609 10.6906C33.2609 9.79473 32.9729 9.07487 32.397 8.53098C31.821 7.98708 31.0531 7.71513 30.0932 7.71513H24.8136V18.4331H30.1092ZM29.7092 12.1943H26.9894V9.57078H29.8532C30.2051 9.57078 30.5091 9.68809 30.7651 9.92271C31.0211 10.1573 31.1491 10.4559 31.1491 10.8185C31.1491 11.2238 31.0157 11.5544 30.7491 11.8104C30.4825 12.0663 30.1358 12.1943 29.7092 12.1943ZM29.8692 16.5774H26.9894V13.9219H29.9492C30.3545 13.9219 30.6878 14.0446 30.9491 14.2899C31.2104 14.5352 31.3411 14.8551 31.3411 15.2497C31.3411 15.655 31.2131 15.9776 30.9571 16.2175C30.7011 16.4575 30.3385 16.5774 29.8692 16.5774ZM37.6819 18.4331V6.91528H35.57V18.4331H37.6819ZM43.4147 18.673C44.46 18.673 45.3399 18.3851 46.0545 17.8092V18.4331H48.1663V10.4506H46.0545V11.0905C45.3506 10.5039 44.4706 10.2107 43.4147 10.2107C42.9134 10.2107 42.3961 10.328 41.8628 10.5626C41.3296 10.7972 40.8736 11.1491 40.495 11.6184C40.1163 12.0876 39.855 12.5649 39.711 13.0501C39.567 13.5354 39.495 14.0019 39.495 14.4498C39.495 15.0471 39.6017 15.6096 39.815 16.1375C40.0283 16.6654 40.319 17.1187 40.6869 17.4973C41.0549 17.8759 41.4762 18.1665 41.9508 18.3691C42.4255 18.5717 42.9134 18.673 43.4147 18.673ZM43.7827 16.8334C43.3881 16.8334 43.0094 16.7374 42.6468 16.5454C42.2841 16.3535 42.0095 16.0682 41.8228 15.6896C41.6362 15.311 41.5429 14.8978 41.5429 14.4498C41.5429 13.7247 41.7535 13.1434 42.1748 12.7062C42.5961 12.2689 43.1321 12.0503 43.7827 12.0503C44.0493 12.0503 44.3613 12.125 44.7186 12.2743C45.0759 12.4236 45.3879 12.6928 45.6545 13.0821C45.9212 13.4714 46.0545 13.9273 46.0545 14.4498C46.0545 14.8018 45.9905 15.1271 45.8625 15.4257C45.7345 15.7243 45.5665 15.9749 45.3586 16.1775C45.1506 16.3801 44.9026 16.5401 44.6146 16.6574C44.3266 16.7747 44.0493 16.8334 43.7827 16.8334ZM54.2511 18.673C55.2111 18.673 56.0617 18.3984 56.8029 17.8492C57.5442 17.3 58.0268 16.5774 58.2508 15.6816L56.299 15.1857C56.2136 15.4417 56.083 15.6949 55.907 15.9456C55.731 16.1962 55.499 16.3908 55.2111 16.5295C54.9231 16.6681 54.6031 16.7374 54.2511 16.7374C53.5899 16.7374 53.0539 16.5268 52.6433 16.1055C52.2326 15.6843 52.0273 15.1324 52.0273 14.4498C52.0273 13.7673 52.2326 13.2128 52.6433 12.7862C53.0539 12.3596 53.5899 12.1463 54.2511 12.1463C54.7311 12.1463 55.1444 12.2769 55.491 12.5382C55.8377 12.7995 56.0803 13.1968 56.219 13.73L58.2508 13.1541C58.0908 12.6102 57.8482 12.1436 57.5229 11.7544C57.1976 11.3651 56.8483 11.0558 56.475 10.8265C56.1017 10.5972 55.7204 10.4373 55.3311 10.3466C54.9418 10.256 54.5818 10.2107 54.2511 10.2107C53.6859 10.2107 53.1419 10.3146 52.6193 10.5226C52.0967 10.7306 51.662 10.9972 51.3154 11.3224C50.9688 11.6477 50.6968 11.9943 50.4995 12.3622C50.3021 12.7302 50.1661 13.0981 50.0915 13.466C50.0168 13.834 49.9795 14.1619 49.9795 14.4498C49.9795 15.0577 50.0915 15.623 50.3155 16.1455C50.5395 16.6681 50.8488 17.1187 51.2434 17.4973C51.638 17.8759 52.094 18.1665 52.6113 18.3691C53.1286 18.5717 53.6752 18.673 54.2511 18.673ZM62.1758 18.4331V15.3137H62.5438L65.6795 18.4331H68.4953L64.2236 14.2739L68.0793 10.4506H65.4235L62.5598 13.2341H62.1758V6.91528H60.064V18.4331H62.1758ZM72.9802 18.673C73.9402 18.673 74.7908 18.3984 75.532 17.8492C76.2733 17.3 76.7559 16.5774 76.9799 15.6816L75.0281 15.1857C74.9428 15.4417 74.8121 15.6949 74.6361 15.9456C74.4601 16.1962 74.2281 16.3908 73.9402 16.5295C73.6522 16.6681 73.3322 16.7374 72.9802 16.7374C72.319 16.7374 71.783 16.5268 71.3724 16.1055C70.9617 15.6843 70.7564 15.1324 70.7564 14.4498C70.7564 13.7673 70.9617 13.2128 71.3724 12.7862C71.783 12.3596 72.319 12.1463 72.9802 12.1463C73.4602 12.1463 73.8735 12.2769 74.2201 12.5382C74.5668 12.7995 74.8094 13.1968 74.9481 13.73L76.9799 13.1541C76.8199 12.6102 76.5773 12.1436 76.252 11.7544C75.9267 11.3651 75.5774 11.0558 75.2041 10.8265C74.8308 10.5972 74.4495 10.4373 74.0602 10.3466C73.6709 10.256 73.3109 10.2107 72.9802 10.2107C72.415 10.2107 71.871 10.3146 71.3484 10.5226C70.8258 10.7306 70.3911 10.9972 70.0445 11.3224C69.6979 11.6477 69.4259 11.9943 69.2286 12.3622C69.0312 12.7302 68.8953 13.0981 68.8206 13.466C68.7459 13.834 68.7086 14.1619 68.7086 14.4498C68.7086 15.0577 68.8206 15.623 69.0446 16.1455C69.2686 16.6681 69.5779 17.1187 69.9725 17.4973C70.3671 17.8759 70.8231 18.1665 71.3404 18.3691C71.8577 18.5717 72.4043 18.673 72.9802 18.673ZM82.5048 18.641C83.0807 18.641 83.63 18.5397 84.1527 18.3371C84.6753 18.1345 85.1366 17.8465 85.5365 17.4733C85.9365 17.1 86.2485 16.6548 86.4725 16.1375C86.6964 15.6203 86.8084 15.0577 86.8084 14.4498C86.8084 13.842 86.6964 13.2794 86.4725 12.7622C86.2485 12.2449 85.9365 11.7997 85.5365 11.4264C85.1366 11.0532 84.6753 10.7652 84.1527 10.5626C83.63 10.36 83.0807 10.2586 82.5048 10.2586C81.9182 10.2586 81.3262 10.3733 80.7289 10.6026C80.1316 10.8319 79.6277 11.1785 79.2171 11.6424C78.8064 12.1063 78.5265 12.5782 78.3771 13.0581C78.2278 13.538 78.1531 14.0019 78.1531 14.4498C78.1531 15.0577 78.2651 15.6203 78.4891 16.1375C78.7131 16.6548 79.0277 17.1 79.433 17.4733C79.8383 17.8465 80.305 18.1345 80.8329 18.3371C81.3609 18.5397 81.9182 18.641 82.5048 18.641ZM82.5048 16.8334C82.2381 16.8334 81.9235 16.7614 81.5609 16.6174C81.1982 16.4735 80.8809 16.2095 80.6089 15.8256C80.337 15.4417 80.201 14.9831 80.201 14.4498C80.201 13.9166 80.337 13.458 80.6089 13.0741C80.8809 12.6902 81.1982 12.4262 81.5609 12.2823C81.9235 12.1383 82.2381 12.0663 82.5048 12.0663C82.7608 12.0663 83.0674 12.1383 83.4247 12.2823C83.782 12.4262 84.094 12.6902 84.3606 13.0741C84.6273 13.458 84.7606 13.9166 84.7606 14.4498C84.7606 14.9831 84.6273 15.4417 84.3606 15.8256C84.094 16.2095 83.782 16.4735 83.4247 16.6174C83.0674 16.7614 82.7608 16.8334 82.5048 16.8334ZM90.7334 21.1526V17.8092C91.448 18.3851 92.328 18.673 93.3732 18.673C93.8745 18.673 94.3625 18.5717 94.8371 18.3691C95.3117 18.1665 95.733 17.8759 96.101 17.4973C96.469 17.1187 96.7596 16.6654 96.9729 16.1375C97.1862 15.6096 97.2929 15.0471 97.2929 14.4498C97.2929 13.8526 97.1862 13.2901 96.9729 12.7622C96.7596 12.2343 96.469 11.781 96.101 11.4024C95.733 11.0238 95.3117 10.7306 94.8371 10.5226C94.3625 10.3146 93.8745 10.2107 93.3732 10.2107C92.3173 10.2107 91.4374 10.5039 90.7334 11.0905V10.4506H88.6216V21.1526H90.7334ZM93.0052 16.8334C92.7386 16.8334 92.4453 16.7694 92.1253 16.6414C91.8053 16.5135 91.536 16.3188 91.3174 16.0575C91.0987 15.7963 90.9468 15.5296 90.8614 15.2577C90.7761 14.9857 90.7334 14.7165 90.7334 14.4498C90.7334 13.9273 90.8668 13.4714 91.1334 13.0821C91.4 12.6928 91.712 12.4236 92.0693 12.2743C92.4266 12.125 92.7386 12.0503 93.0052 12.0503C93.6559 12.0503 94.1918 12.2689 94.6131 12.7062C95.0344 13.1434 95.2451 13.7247 95.2451 14.4498C95.2451 14.9831 95.1331 15.4283 94.9091 15.7856C94.6851 16.1429 94.4105 16.4068 94.0852 16.5774C93.7598 16.7481 93.3999 16.8334 93.0052 16.8334ZM101.218 21.1526V17.8092C101.932 18.3851 102.812 18.673 103.858 18.673C104.359 18.673 104.847 18.5717 105.322 18.3691C105.796 18.1665 106.217 17.8759 106.585 17.4973C106.953 17.1187 107.244 16.6654 107.457 16.1375C107.671 15.6096 107.777 15.0471 107.777 14.4498C107.777 13.8526 107.671 13.2901 107.457 12.7622C107.244 12.2343 106.953 11.781 106.585 11.4024C106.217 11.0238 105.796 10.7306 105.322 10.5226C104.847 10.3146 104.359 10.2107 103.858 10.2107C102.802 10.2107 101.922 10.5039 101.218 11.0905V10.4506H99.1061V21.1526H101.218ZM103.49 16.8334C103.223 16.8334 102.93 16.7694 102.61 16.6414C102.29 16.5135 102.02 16.3188 101.802 16.0575C101.583 15.7963 101.431 15.5296 101.346 15.2577C101.261 14.9857 101.218 14.7165 101.218 14.4498C101.218 13.9273 101.351 13.4714 101.618 13.0821C101.885 12.6928 102.196 12.4236 102.554 12.2743C102.911 12.125 103.223 12.0503 103.49 12.0503C104.14 12.0503 104.676 12.2689 105.098 12.7062C105.519 13.1434 105.73 13.7247 105.73 14.4498C105.73 14.9831 105.618 15.4283 105.394 15.7856C105.17 16.1429 104.895 16.4068 104.57 16.5774C104.244 16.7481 103.884 16.8334 103.49 16.8334ZM113.046 18.673C113.931 18.673 114.713 18.4651 115.39 18.0492C116.067 17.6332 116.577 17.02 116.918 16.2095L115.03 15.8096C114.838 16.1402 114.59 16.3988 114.286 16.5854C113.982 16.7721 113.569 16.8654 113.046 16.8654C112.694 16.8654 112.364 16.7694 112.054 16.5774C111.745 16.3855 111.513 16.1429 111.358 15.8496C111.204 15.5563 111.1 15.2764 111.046 15.0097H117.126V14.2899C117.105 13.7033 116.985 13.1568 116.766 12.6502C116.547 12.1436 116.251 11.709 115.878 11.3464C115.505 10.9838 115.075 10.7039 114.59 10.5066C114.105 10.3093 113.601 10.2107 113.078 10.2107C112.524 10.2107 111.993 10.3146 111.486 10.5226C110.98 10.7306 110.537 11.0238 110.158 11.4024C109.78 11.781 109.484 12.2316 109.271 12.7542C109.057 13.2767 108.951 13.842 108.951 14.4498C108.951 15.0577 109.057 15.623 109.271 16.1455C109.484 16.6681 109.777 17.1187 110.15 17.4973C110.524 17.8759 110.961 18.1665 111.462 18.3691C111.964 18.5717 112.492 18.673 113.046 18.673ZM114.966 13.522H111.11C111.164 13.2981 111.276 13.0688 111.446 12.8342C111.617 12.5995 111.854 12.4102 112.158 12.2663C112.462 12.1223 112.769 12.0503 113.078 12.0503C113.516 12.0503 113.908 12.1756 114.254 12.4262C114.601 12.6769 114.838 13.0421 114.966 13.522ZM121.051 18.4331V15.8576C121.051 13.5753 122 12.4342 123.899 12.4342H124.363L124.475 10.4026C124.347 10.36 124.16 10.3386 123.915 10.3386C123.307 10.3386 122.76 10.4799 122.275 10.7626C121.79 11.0452 121.382 11.4264 121.051 11.9063V10.4506H118.939V18.4331H121.051Z" fill="#0D0D0D"/>
<path fill-rule="evenodd" clip-rule="evenodd" d="M0 0L4.24299 1.95936V7.05369L10.1635 4.11465L19.9322 9.11101V13.7155L10.1635 18.7119L0 13.7155V0ZM10.1635 8.91508L5.52576 11.3643L10.1635 13.9114L14.8011 11.3643L10.1635 8.91508Z" fill="#0D0D0D"/>
<path fill-rule="evenodd" clip-rule="evenodd" d="M0 15.4576L10.1218 20.3397L19.9322 15.4576V19.1179L10.1218 24L0 19.1179L0 15.4576Z" fill="#F6AB5A"/>
</svg>
