<?xml version="1.0" standalone="yes"?>
<svg xmlns="http://www.w3.org/2000/svg" width="586" height="595">
<path style="fill:#ffffff; stroke:none;" d="M0 0L0 595L586 595L586 0L0 0z"/>
<path style="fill:#010101; stroke:none;" d="M76 20.439C44.617 25.3407 16.4431 50.2914 13.1705 83C9.64321 118.255 13 155.553 13 191L13 408L13 475C13 497.359 12.293 517.747 25.7708 537C53.5653 576.704 104.925 568 147 568L383 568L458 568C472.52 568 487.679 569.287 502 566.539C537.113 559.802 559.452 528.458 560.961 494C562.501 458.814 561 423.223 561 388L561 177C561 136.315 571.187 81.0835 544.331 47C515.457 10.3543 463.064 20 422 20L190 20L115 20C102.322 20 88.5349 18.4812 76 20.439z"/>
<path style="fill:#563611; stroke:none;" d="M405 85L405 86L408 86L405 85z"/>
<path style="fill:#f1742d; stroke:none;" d="M351 477L400 469.576L472 459C471.68 443.561 464.641 426.8 460.421 412C451.98 382.392 445.046 351.405 428.575 325C421.392 313.485 412.385 302.742 402.961 293.004C399.253 289.173 390.78 284.509 389.677 279C388.674 273.997 395.812 265.539 397.857 261C404.239 246.834 408.771 232.237 411.8 217C420.293 174.283 417.951 127.674 410 85L353 93.5895L333.028 97.7423L332 123L332 192L332 333L331.895 401L341.626 432L351 477z"/>
<path style="fill:#563611; stroke:none;" d="M399 86L399 87L402 87L399 86M410.333 86.6667L410.667 87.3333L410.333 86.6667M392 87L392 88L395 88L392 87M385 88L385 89L388 89L385 88M378 89L378 90L381 90L378 89M372 90L372 91L375 91L372 90M365 91L365 92L368 92L365 91M411 91L411 95L412 95L411 91M358 92L358 93L361 93L358 92M351 93L351 94L354 94L351 93M344 94L344 95L348 95L344 94M338 95L338 96L341 96L338 95M331 96L331 97L334 97L331 96M324 97L324 98L327 98L324 97z"/>
<path style="fill:#f1742d; stroke:none;" d="M327.667 97.3333L328.333 97.6667L327.667 97.3333z"/>
<path style="fill:#fbab30; stroke:none;" d="M295 102C301.11 134.796 304.655 174.171 289.241 205C282.099 219.283 270.653 233.541 254 236C253.146 194.6 241.22 152.087 236 111C208.91 116.047 181.293 119.327 154 123.13C148.065 123.957 128.718 123.799 125.032 128.603C123.194 130.997 124.633 135.321 125 138C126.098 146.014 127.394 153.999 128.579 162C133.412 194.654 137.735 227.426 143.08 260C144.554 268.979 145.606 278.021 147.08 287C147.543 289.819 147.344 294.936 150.318 296.397C164.904 303.557 173.381 276.802 185 273.889C191.712 272.206 201.221 274.882 208 275.715C221.293 277.349 234.665 278.835 248 280.075C252.851 280.526 260.235 282.988 264.91 281.357C269.485 279.761 273.094 273.528 276.13 270C283.647 261.267 290.936 252.234 299 244C292.291 256.605 284.648 268.825 277.189 281C274.978 284.608 272.092 291.842 267.815 293.307C262.934 294.979 254.031 291.907 249 291.08C235.691 288.892 222.356 286.748 209 284.87C204.257 284.203 197.722 281.729 193 282.89C189.023 283.867 185.72 288.159 183.02 291C175.768 298.631 183.015 302.313 189 307.965C195.281 313.896 213.543 324.929 215.273 333.576C215.92 336.81 211.841 340.777 210 343C209.889 333.588 202.931 330.497 196 325.371C179.849 313.425 170.202 308 150 308L179 502C206.695 499.814 234.493 493.693 262 489.729C267.704 488.907 286.463 489.073 289.958 484.397C291.702 482.063 290.233 477.608 289.87 475C288.707 466.654 287.303 458.343 286.13 450C281.455 416.741 278.86 381.638 271 349C298.837 342.603 324.325 376.828 331 400L332 400L332 97L295 102z"/>
<path style="fill:#563611; stroke:none;" d="M317 98L317 99L320 99L317 98z"/>
<path style="fill:#f1742d; stroke:none;" d="M320 98L320 99L323 99L320 98z"/>
<path style="fill:#563611; stroke:none;" d="M311 99L311 100L314 100L311 99z"/>
<path style="fill:#f1742d; stroke:none;" d="M314.667 99.3333L315.333 99.6667L314.667 99.3333z"/>
<path style="fill:#563611; stroke:none;" d="M412 99L412 102L413 102L412 99M304 100L304 101L307 101L304 100z"/>
<path style="fill:#f1742d; stroke:none;" d="M307.667 100.333L308.333 100.667L307.667 100.333z"/>
<path style="fill:#563611; stroke:none;" d="M297 101L297 102L300 102L297 101z"/>
<path style="fill:#f1742d; stroke:none;" d="M300.667 101.333L301.333 101.667L300.667 101.333M295.333 104.667L295.667 105.333L295.333 104.667z"/>
<path style="fill:#563611; stroke:none;" d="M295 106L295 109L296 109L295 106M413 106L413 110L414 110L413 106M230 111L230 112L233 112L230 111z"/>
<path style="fill:#f1742d; stroke:none;" d="M233 111L234 112L233 111z"/>
<path style="fill:#563611; stroke:none;" d="M236.333 111.667L236.667 112.333L236.333 111.667z"/>
<path style="fill:#f1742d; stroke:none;" d="M296.333 111.667L296.667 112.333L296.333 111.667z"/>
<path style="fill:#563611; stroke:none;" d="M223 112L223 113L226 113L223 112z"/>
<path style="fill:#f1742d; stroke:none;" d="M226 112L227 113L226 112z"/>
<path style="fill:#563611; stroke:none;" d="M216 113L216 114L219 114L216 113z"/>
<path style="fill:#f1742d; stroke:none;" d="M219.667 113.333L220.333 113.667L219.667 113.333M236.333 113.667L236.667 114.333L236.333 113.667z"/>
<path style="fill:#563611; stroke:none;" d="M296 113L296 116L297 116L296 113M209 114L209 115L212 115L209 114z"/>
<path style="fill:#f1742d; stroke:none;" d="M212.667 114.333L213.333 114.667L212.667 114.333z"/>
<path style="fill:#563611; stroke:none;" d="M203.667 115.333L204.333 115.667L203.667 115.333z"/>
<path style="fill:#f1742d; stroke:none;" d="M205.667 115.333L206.333 115.667L205.667 115.333z"/>
<path style="fill:#563611; stroke:none;" d="M414 115L414 120L415 120L414 115M196 116L196 117L199 117L196 116z"/>
<path style="fill:#f1742d; stroke:none;" d="M199 116L200 117L199 116z"/>
<path style="fill:#563611; stroke:none;" d="M189 117L189 118L192 118L189 117z"/>
<path style="fill:#f1742d; stroke:none;" d="M192 117L193 118L192 117z"/>
<path style="fill:#563611; stroke:none;" d="M237 117L237 120L238 120L237 117M182 118L182 119L185 119L182 118z"/>
<path style="fill:#f1742d; stroke:none;" d="M185 118L186 119L185 118M297 118L297 121L298 121L297 118z"/>
<path style="fill:#563611; stroke:none;" d="M176.667 119.333L177.333 119.667L176.667 119.333z"/>
<path style="fill:#f1742d; stroke:none;" d="M178 119L179 120L178 119z"/>
<path style="fill:#563611; stroke:none;" d="M169 120L169 121L172 121L169 120z"/>
<path style="fill:#f1742d; stroke:none;" d="M237 120L238 121L237 120z"/>
<path style="fill:#563611; stroke:none;" d="M162 121L162 122L165 122L162 121z"/>
<path style="fill:#f1742d; stroke:none;" d="M165 121L166 122L165 121z"/>
<path style="fill:#563611; stroke:none;" d="M297 121L297 125L298 125L297 121M155 122L155 123L158 123L155 122z"/>
<path style="fill:#f1742d; stroke:none;" d="M158 122L159 123L158 122z"/>
<path style="fill:#563611; stroke:none;" d="M149.667 123.333L150.333 123.667L149.667 123.333z"/>
<path style="fill:#f1742d; stroke:none;" d="M151 123L152 124L151 123z"/>
<path style="fill:#563611; stroke:none;" d="M238 123L238 127L239 127L238 123M142 124L142 125L145 125L142 124M135 125L135 126L138 126L135 125z"/>
<path style="fill:#f1742d; stroke:none;" d="M138 125L139 126L138 125z"/>
<path style="fill:#563611; stroke:none;" d="M128 126L128 127L131 127L128 126z"/>
<path style="fill:#f1742d; stroke:none;" d="M131 126L132 127L131 126z"/>
<path style="fill:#563611; stroke:none;" d="M415 126L415 132L416 132L415 126M123 127L123 131L124 131L123 127z"/>
<path style="fill:#f1742d; stroke:none;" d="M124 127L125 128L124 127M238 127L239 128L238 127M298 128L298 131L299 131L298 128z"/>
<path style="fill:#563611; stroke:none;" d="M239 130L239 133L240 133L239 130M298 131L298 138L299 138L298 131z"/>
<path style="fill:#f1742d; stroke:none;" d="M239.333 133.667L239.667 134.333L239.333 133.667M124 134L125 135L124 134z"/>
<path style="fill:#563611; stroke:none;" d="M124 135L124 138L125 138L124 135M240 137L240 140L241 140L240 137z"/>
<path style="fill:#f1742d; stroke:none;" d="M240.333 140.667L240.667 141.333L240.333 140.667z"/>
<path style="fill:#563611; stroke:none;" d="M416 140L416 153L417 153L416 140z"/>
<path style="fill:#f1742d; stroke:none;" d="M125 141L126 142L125 141z"/>
<path style="fill:#563611; stroke:none;" d="M125 142L125 145L126 145L125 142z"/>
<path style="fill:#f1742d; stroke:none;" d="M299 143L299 160L300 160L299 143z"/>
<path style="fill:#563611; stroke:none;" d="M241 144L241 147L242 147L241 144z"/>
<path style="fill:#f1742d; stroke:none;" d="M241.333 147.667L241.667 148.333L241.333 147.667z"/>
<path style="fill:#563611; stroke:none;" d="M126 148L126 151L127 151L126 148M242 150L242 154L243 154L242 150z"/>
<path style="fill:#f1742d; stroke:none;" d="M127 154L128 155L127 154M242 154L243 155L242 154z"/>
<path style="fill:#563611; stroke:none;" d="M127 155L127 158L128 158L127 155M243 157L243 160L244 160L243 157z"/>
<path style="fill:#f1742d; stroke:none;" d="M243.333 160.667L243.667 161.333L243.333 160.667M128 161L129 162L128 161z"/>
<path style="fill:#563611; stroke:none;" d="M128 162L128 165L129 165L128 162M244 164L244 167L245 167L244 164M298 165L298 170L299 170L298 165z"/>
<path style="fill:#f1742d; stroke:none;" d="M244.333 167.667L244.667 168.333L244.333 167.667M129 168L130 169L129 168z"/>
<path style="fill:#563611; stroke:none;" d="M129 169L129 172L130 172L129 169z"/>
<path style="fill:#f1742d; stroke:none;" d="M298 170L298 173L299 173L298 170z"/>
<path style="fill:#563611; stroke:none;" d="M245 171L245 174L246 174L245 171M416 171L416 182L417 182L416 171z"/>
<path style="fill:#f1742d; stroke:none;" d="M245.333 174.667L245.667 175.333L245.333 174.667z"/>
<path style="fill:#563611; stroke:none;" d="M130 175L130 178L131 178L130 175M297 175L297 178L298 178L297 175M246 177L246 181L247 181L246 177z"/>
<path style="fill:#f1742d; stroke:none;" d="M297.333 178.667L297.667 179.333L297.333 178.667M131 181L132 182L131 181M246 181L247 182L246 181z"/>
<path style="fill:#563611; stroke:none;" d="M296.333 181.667L296.667 182.333L296.333 181.667M131 182L131 185L132 185L131 182z"/>
<path style="fill:#f1742d; stroke:none;" d="M296.333 183.667L296.667 184.333L296.333 183.667z"/>
<path style="fill:#563611; stroke:none;" d="M247 184L247 187L248 187L247 184M295.333 186.667L295.667 187.333L295.333 186.667z"/>
<path style="fill:#f1742d; stroke:none;" d="M247.333 187.667L247.667 188.333L247.333 187.667M132 188L133 189L132 188M295 188L296 189L295 188z"/>
<path style="fill:#563611; stroke:none;" d="M132 189L132 192L133 192L132 189M415 189L415 195L416 195L415 189M294 190L295 191L294 190M248 191L248 194L249 194L248 191z"/>
<path style="fill:#f1742d; stroke:none;" d="M294 191L295 192L294 191z"/>
<path style="fill:#563611; stroke:none;" d="M293 193L294 194L293 193z"/>
<path style="fill:#f1742d; stroke:none;" d="M248.333 194.667L248.667 195.333L248.333 194.667M293 194L294 195L293 194M133 195L134 196L133 195z"/>
<path style="fill:#563611; stroke:none;" d="M133 196L133 199L134 199L133 196M292 196L293 197L292 196z"/>
<path style="fill:#f1742d; stroke:none;" d="M292 197L293 198L292 197z"/>
<path style="fill:#563611; stroke:none;" d="M249 198L249 201L250 201L249 198M291 199L292 200L291 199M414 199L414 203L415 203L414 199z"/>
<path style="fill:#f1742d; stroke:none;" d="M291 200L292 201L291 200M249.333 201.667L249.667 202.333L249.333 201.667z"/>
<path style="fill:#563611; stroke:none;" d="M290 201L291 202L290 201M134 202L134 205L135 205L134 202z"/>
<path style="fill:#f1742d; stroke:none;" d="M290 202L291 203L290 202z"/>
<path style="fill:#563611; stroke:none;" d="M289 203L290 204L289 203M250 204L250 208L251 208L250 204z"/>
<path style="fill:#f1742d; stroke:none;" d="M289 204L290 205L289 204z"/>
<path style="fill:#563611; stroke:none;" d="M288 205L289 206L288 205z"/>
<path style="fill:#f1742d; stroke:none;" d="M288 206L289 207L288 206z"/>
<path style="fill:#563611; stroke:none;" d="M287 207L288 208L287 207M413 207L413 210L414 210L413 207z"/>
<path style="fill:#f1742d; stroke:none;" d="M135 208L136 209L135 208M250 208L251 209L250 208M287 208L288 209L287 208z"/>
<path style="fill:#563611; stroke:none;" d="M135 209L135 212L136 212L135 209M286 209L287 210L286 209z"/>
<path style="fill:#f1742d; stroke:none;" d="M286 210L287 211L286 210z"/>
<path style="fill:#563611; stroke:none;" d="M251 211L251 214L252 214L251 211M285 211L286 212L285 211z"/>
<path style="fill:#f1742d; stroke:none;" d="M284 213L285 214L284 213z"/>
<path style="fill:#563611; stroke:none;" d="M412.333 213.667L412.667 214.333L412.333 213.667z"/>
<path style="fill:#f1742d; stroke:none;" d="M251.333 214.667L251.667 215.333L251.333 214.667z"/>
<path style="fill:#563611; stroke:none;" d="M283 214L284 215L283 214z"/>
<path style="fill:#f1742d; stroke:none;" d="M136 215L137 216L136 215z"/>
<path style="fill:#563611; stroke:none;" d="M136 216L136 219L137 219L136 216z"/>
<path style="fill:#f1742d; stroke:none;" d="M282 216L283 217L282 216z"/>
<path style="fill:#563611; stroke:none;" d="M281 217L282 218L281 217M252 218L252 221L253 221L252 218M280 218L281 219L280 218M411.333 218.667L411.667 219.333L411.333 218.667z"/>
<path style="fill:#f1742d; stroke:none;" d="M280 219L281 220L280 219M279 220L280 221L279 220M252.333 221.667L252.667 222.333L252.333 221.667z"/>
<path style="fill:#563611; stroke:none;" d="M278 221L279 222L278 221z"/>
<path style="fill:#f1742d; stroke:none;" d="M137 222L138 223L137 222z"/>
<path style="fill:#563611; stroke:none;" d="M277 222L278 223L277 222M137 223L137 226L138 226L137 223M276 223L277 224L276 223M410.333 223.667L410.667 224.333L410.333 223.667M275 224L276 225L275 224M253 225L253 228L254 228L253 225M274 225L275 226L274 225M273 226L274 227L273 226M272 227L273 228L272 227M409.333 227.667L409.667 228.333L409.333 227.667z"/>
<path style="fill:#f1742d; stroke:none;" d="M253.333 228.667L253.667 229.333L253.333 228.667M271 228L272 229L271 228z"/>
<path style="fill:#563611; stroke:none;" d="M138 229L138 232L139 232L138 229M269 229L270 230L269 229z"/>
<path style="fill:#f1742d; stroke:none;" d="M270 229L271 230L270 229z"/>
<path style="fill:#563611; stroke:none;" d="M268 230L269 231L268 230M254 231L254 235L255 235L254 231M266 231L267 232L266 231z"/>
<path style="fill:#f1742d; stroke:none;" d="M267 231L268 232L267 231z"/>
<path style="fill:#563611; stroke:none;" d="M408.333 231.667L408.667 232.333L408.333 231.667z"/>
<path style="fill:#f1742d; stroke:none;" d="M265 232L266 233L265 232z"/>
<path style="fill:#563611; stroke:none;" d="M262 233L263 234L262 233z"/>
<path style="fill:#f1742d; stroke:none;" d="M263 233L264 234L263 233z"/>
<path style="fill:#563611; stroke:none;" d="M260 234L261 235L260 234z"/>
<path style="fill:#f1742d; stroke:none;" d="M139 235L140 236L139 235M254 235L255 236L254 235z"/>
<path style="fill:#563611; stroke:none;" d="M256.667 235.333L257.333 235.667L256.667 235.333M407 235L408 236L407 235M139 236L139 239L140 239L139 236M406.333 238.667L406.667 239.333L406.333 238.667M405.333 241.667L405.667 242.333L405.333 241.667z"/>
<path style="fill:#f1742d; stroke:none;" d="M140 242L141 243L140 242z"/>
<path style="fill:#563611; stroke:none;" d="M140 243L140 246L141 246L140 243z"/>
<path style="fill:#f1742d; stroke:none;" d="M298 244L294 249L297 249L298 244z"/>
<path style="fill:#563611; stroke:none;" d="M404.333 244.667L404.667 245.333L404.333 244.667M297 246L298 247L297 246z"/>
<path style="fill:#010101; stroke:none;" d="M296 247L297 248L296 247z"/>
<path style="fill:#563611; stroke:none;" d="M403 247L404 248L403 247z"/>
<path style="fill:#010101; stroke:none;" d="M295 248L296 249L295 248z"/>
<path style="fill:#f1742d; stroke:none;" d="M141 249L142 250L141 249M293 249L294 250L293 249z"/>
<path style="fill:#563611; stroke:none;" d="M295 249L296 250L295 249M141 250L141 253L142 253L141 250z"/>
<path style="fill:#f1742d; stroke:none;" d="M295 250L296 251L295 250z"/>
<path style="fill:#563611; stroke:none;" d="M402 250L403 251L402 250M292 251L293 252L292 251M294 251L295 252L294 251M291 252L292 253L291 252M401.333 252.667L401.667 253.333L401.333 252.667M290 253L291 254L290 253M293 253L294 254L293 253M289 254L290 255L289 254M292 254L293 255L292 254z"/>
<path style="fill:#f1742d; stroke:none;" d="M288 255L289 256L288 255M292 255L293 256L292 255z"/>
<path style="fill:#563611; stroke:none;" d="M400 255L401 256L400 255M142 256L142 259L143 259L142 256z"/>
<path style="fill:#f1742d; stroke:none;" d="M287 256L288 257L287 256z"/>
<path style="fill:#563611; stroke:none;" d="M291 256L292 257L291 256z"/>
<path style="fill:#f1742d; stroke:none;" d="M286 257L287 258L286 257M291 257L292 258L291 257z"/>
<path style="fill:#563611; stroke:none;" d="M399 257L400 258L399 257M290 258L291 259L290 258M285 259L286 260L285 259M398 259L399 260L398 259M284 260L285 261L284 260z"/>
<path style="fill:#f1742d; stroke:none;" d="M289 260L290 261L289 260z"/>
<path style="fill:#563611; stroke:none;" d="M283 261L284 262L283 261M288 261L289 262L288 261M397 261L398 262L397 261z"/>
<path style="fill:#f1742d; stroke:none;" d="M143 262L144 263L143 262M282 262L283 263L282 262M288 262L289 263L288 262z"/>
<path style="fill:#563611; stroke:none;" d="M143 263L143 266L144 266L143 263z"/>
<path style="fill:#f1742d; stroke:none;" d="M281 263L282 264L281 263z"/>
<path style="fill:#563611; stroke:none;" d="M287 263L288 264L287 263z"/>
<path style="fill:#f1742d; stroke:none;" d="M280 264L281 265L280 264z"/>
<path style="fill:#563611; stroke:none;" d="M396 264L397 265L396 264z"/>
<path style="fill:#f1742d; stroke:none;" d="M286 265L287 266L286 265z"/>
<path style="fill:#563611; stroke:none;" d="M279 266L280 267L279 266M285 266L286 267L285 266M278 267L279 268L278 267z"/>
<path style="fill:#f1742d; stroke:none;" d="M285 267L286 268L285 267z"/>
<path style="fill:#563611; stroke:none;" d="M394 267L395 268L394 267M277 268L278 269L277 268M284 268L285 269L284 268z"/>
<path style="fill:#f1742d; stroke:none;" d="M144 269L145 270L144 269M276 269L277 270L276 269z"/>
<path style="fill:#563611; stroke:none;" d="M393 269L394 270L393 269M144 270L144 273L145 273L144 270z"/>
<path style="fill:#f1742d; stroke:none;" d="M275 270L276 271L275 270M283 270L284 271L283 270M274 271L275 272L274 271z"/>
<path style="fill:#563611; stroke:none;" d="M282 271L283 272L282 271M392 271L393 272L392 271z"/>
<path style="fill:#f1742d; stroke:none;" d="M282 272L283 273L282 272z"/>
<path style="fill:#563611; stroke:none;" d="M183 273L183 274L186 274L183 273z"/>
<path style="fill:#f1742d; stroke:none;" d="M186 273L187 274L186 273z"/>
<path style="fill:#563611; stroke:none;" d="M273 273L274 274L273 273M281 273L282 274L281 273M391 273L392 274L391 273M191 274L191 275L195 275L191 274z"/>
<path style="fill:#f1742d; stroke:none;" d="M195 274L195 275L198 275L195 274z"/>
<path style="fill:#563611; stroke:none;" d="M272 274L273 275L272 274M390 274L391 275L390 274M200 275L200 276L204 276L200 275z"/>
<path style="fill:#f1742d; stroke:none;" d="M204 275L204 276L207 276L204 275z"/>
<path style="fill:#563611; stroke:none;" d="M271 275L272 276L271 275z"/>
<path style="fill:#f1742d; stroke:none;" d="M280 275L281 276L280 275M145 276L146 277L145 276z"/>
<path style="fill:#563611; stroke:none;" d="M209 276L209 277L214 277L209 276z"/>
<path style="fill:#f1742d; stroke:none;" d="M214.667 276.333L215.333 276.667L214.667 276.333M270 276L271 277L270 276z"/>
<path style="fill:#563611; stroke:none;" d="M279 276L280 277L279 276M389 276L390 277L389 276M145 277L145 280L146 280L145 277M218 277L218 278L223 278L218 277z"/>
<path style="fill:#f1742d; stroke:none;" d="M223.667 277.333L224.333 277.667L223.667 277.333M269 277L270 278L269 277M279 277L280 278L279 277z"/>
<path style="fill:#563611; stroke:none;" d="M227 278L227 279L232 279L227 278z"/>
<path style="fill:#f1742d; stroke:none;" d="M232.667 278.333L233.333 278.667L232.667 278.333M268 278L269 279L268 278z"/>
<path style="fill:#563611; stroke:none;" d="M278 278L279 279L278 278M177 279L178 280L177 279M236 279L236 280L241 280L236 279z"/>
<path style="fill:#f1742d; stroke:none;" d="M241.667 279.333L242.333 279.667L241.667 279.333z"/>
<path style="fill:#563611; stroke:none;" d="M176 280L177 281L176 280M245 280L245 281L249 281L245 280z"/>
<path style="fill:#f1742d; stroke:none;" d="M249 280L249 281L252 281L249 280z"/>
<path style="fill:#563611; stroke:none;" d="M267 280L268 281L267 280z"/>
<path style="fill:#f1742d; stroke:none;" d="M277 280L278 281L277 280z"/>
<path style="fill:#563611; stroke:none;" d="M175 281L176 282L175 281M254 281L254 282L258 282L254 281z"/>
<path style="fill:#f1742d; stroke:none;" d="M258 281L258 282L261 282L258 281z"/>
<path style="fill:#563611; stroke:none;" d="M266 281L267 282L266 281M276 281L277 282L276 281M390 281L391 282L390 281M174 282L175 283L174 282M191 282L192 283L191 282z"/>
<path style="fill:#f1742d; stroke:none;" d="M194 282L195 283L194 282z"/>
<path style="fill:#563611; stroke:none;" d="M195 282L195 283L198 283L195 282M263 282L263 283L266 283L263 282z"/>
<path style="fill:#f1742d; stroke:none;" d="M276 282L277 283L276 282z"/>
<path style="fill:#563611; stroke:none;" d="M391 282L392 283L391 282M146 283L146 286L147 286L146 283M173 283L174 284L173 283M190 283L191 284L190 283z"/>
<path style="fill:#f1742d; stroke:none;" d="M200 283L201 284L200 283z"/>
<path style="fill:#563611; stroke:none;" d="M201 283L201 284L204 284L201 283M275 283L276 284L275 283M392 283L393 284L392 283M172 284L173 285L172 284M189 284L190 285L189 284z"/>
<path style="fill:#f1742d; stroke:none;" d="M206.667 284.333L207.333 284.667L206.667 284.333z"/>
<path style="fill:#563611; stroke:none;" d="M208 284L208 285L211 285L208 284M393 284L394 285L393 284M171 285L172 286L171 285M188 285L189 286L188 285z"/>
<path style="fill:#f1742d; stroke:none;" d="M213 285L214 286L213 285z"/>
<path style="fill:#563611; stroke:none;" d="M214 285L214 286L217 286L214 285z"/>
<path style="fill:#f1742d; stroke:none;" d="M274 285L275 286L274 285z"/>
<path style="fill:#563611; stroke:none;" d="M394 285L395 286L394 285M170 286L171 287L170 286M187 286L188 287L187 286z"/>
<path style="fill:#f1742d; stroke:none;" d="M219.667 286.333L220.333 286.667L219.667 286.333z"/>
<path style="fill:#563611; stroke:none;" d="M221 286L221 287L224 287L221 286M273 286L274 287L273 286M395 286L396 287L395 286M169 287L170 288L169 287M186 287L187 288L186 287z"/>
<path style="fill:#f1742d; stroke:none;" d="M226 287L227 288L226 287z"/>
<path style="fill:#563611; stroke:none;" d="M227 287L227 288L230 288L227 287M168 288L169 289L168 288M185 288L186 289L185 288z"/>
<path style="fill:#f1742d; stroke:none;" d="M232.667 288.333L233.333 288.667L232.667 288.333z"/>
<path style="fill:#563611; stroke:none;" d="M234 288L234 289L237 289L234 288M272 288L273 289L272 288z"/>
<path style="fill:#f1742d; stroke:none;" d="M147 289L148 290L147 289M167 289L168 290L167 289z"/>
<path style="fill:#563611; stroke:none;" d="M184 289L185 290L184 289z"/>
<path style="fill:#f1742d; stroke:none;" d="M239 289L240 290L239 289z"/>
<path style="fill:#563611; stroke:none;" d="M240 289L240 290L243 290L240 289M147 290L147 293L148 293L147 290z"/>
<path style="fill:#f1742d; stroke:none;" d="M166 290L167 291L166 290z"/>
<path style="fill:#563611; stroke:none;" d="M183 290L184 291L183 290z"/>
<path style="fill:#f1742d; stroke:none;" d="M245.667 290.333L246.333 290.667L245.667 290.333z"/>
<path style="fill:#563611; stroke:none;" d="M247 290L247 291L250 291L247 290z"/>
<path style="fill:#f1742d; stroke:none;" d="M271 290L272 291L271 290M165 291L166 292L165 291z"/>
<path style="fill:#563611; stroke:none;" d="M182 291L183 292L182 291z"/>
<path style="fill:#f1742d; stroke:none;" d="M251.667 291.333L252.333 291.667L251.667 291.333z"/>
<path style="fill:#563611; stroke:none;" d="M253 291L253 292L256 292L253 291M270 291L271 292L270 291z"/>
<path style="fill:#f1742d; stroke:none;" d="M164 292L165 293L164 292z"/>
<path style="fill:#563611; stroke:none;" d="M181 292L182 293L181 292z"/>
<path style="fill:#f1742d; stroke:none;" d="M258.667 292.333L259.333 292.667L258.667 292.333z"/>
<path style="fill:#563611; stroke:none;" d="M260 292L260 293L263 293L260 292z"/>
<path style="fill:#f1742d; stroke:none;" d="M163 293L164 294L163 293z"/>
<path style="fill:#563611; stroke:none;" d="M180 293L181 294L180 293z"/>
<path style="fill:#f1742d; stroke:none;" d="M264.667 293.333L265.333 293.667L264.667 293.333z"/>
<path style="fill:#563611; stroke:none;" d="M266 293L266 294L270 294L266 293M179 294L180 295L179 294M178 295L179 296L178 295M148 296L149 297L148 296z"/>
<path style="fill:#f1742d; stroke:none;" d="M160 296L161 297L160 296z"/>
<path style="fill:#563611; stroke:none;" d="M177.333 296.667L177.667 297.333L177.333 296.667M178 298L179 299L178 298M407 298L408 299L407 298M408 299L409 300L408 299M409 300L410 301L409 300M410 301L411 302L410 301z"/>
<path style="fill:#f1742d; stroke:none;" d="M183 302L184 303L183 302z"/>
<path style="fill:#563611; stroke:none;" d="M411 302L412 303L411 302z"/>
<path style="fill:#f1742d; stroke:none;" d="M184 303L185 304L184 303z"/>
<path style="fill:#563611; stroke:none;" d="M185 304L186 305L185 304M186 305L187 306L186 305M187 306L188 307L187 306M188 307L189 308L188 307M415 307L416 308L415 307z"/>
<path style="fill:#f1742d; stroke:none;" d="M166 308L167 309L166 308z"/>
<path style="fill:#563611; stroke:none;" d="M167 308L167 309L173 309L167 308M189 308L190 309L189 308M416 308L417 309L416 308M174 309L175 310L174 309M190 309L191 310L190 309M417 309L418 310L417 309M150 310L150 313L151 313L150 310M175 310L176 311L175 310z"/>
<path style="fill:#f1742d; stroke:none;" d="M176 311L177 312L176 311z"/>
<path style="fill:#563611; stroke:none;" d="M178 312L179 313L178 312z"/>
<path style="fill:#f1742d; stroke:none;" d="M194 312L195 313L194 312z"/>
<path style="fill:#563611; stroke:none;" d="M419 312L420 313L419 312M179 313L180 314L179 313z"/>
<path style="fill:#f1742d; stroke:none;" d="M195 313L196 314L195 313z"/>
<path style="fill:#563611; stroke:none;" d="M420 313L421 314L420 313z"/>
<path style="fill:#f1742d; stroke:none;" d="M196 314L197 315L196 314z"/>
<path style="fill:#563611; stroke:none;" d="M182 315L183 316L182 315M197 315L198 316L197 315z"/>
<path style="fill:#f1742d; stroke:none;" d="M151 316L152 317L151 316M183 316L184 317L183 316z"/>
<path style="fill:#563611; stroke:none;" d="M198 316L199 317L198 316M422 316L423 317L422 316M151 317L151 320L152 320L151 317M185 317L186 318L185 317M199 317L200 318L199 317M423 317L424 318L423 317M186 318L187 319L186 318M200 318L201 319L200 318z"/>
<path style="fill:#f1742d; stroke:none;" d="M187 319L188 320L187 319z"/>
<path style="fill:#563611; stroke:none;" d="M201 319L202 320L201 319M189 320L190 321L189 320M202 320L203 321L202 320M425 320L426 321L425 320M190 321L191 322L190 321z"/>
<path style="fill:#f1742d; stroke:none;" d="M152 323L153 324L152 323z"/>
<path style="fill:#563611; stroke:none;" d="M193 323L194 324L193 323z"/>
<path style="fill:#f1742d; stroke:none;" d="M206 323L207 324L206 323z"/>
<path style="fill:#563611; stroke:none;" d="M427 323L428 324L427 323M152 324L152 327L153 327L152 324z"/>
<path style="fill:#f1742d; stroke:none;" d="M194 324L195 325L194 324M207 324L208 325L207 324z"/>
<path style="fill:#563611; stroke:none;" d="M196 325L197 326L196 325z"/>
<path style="fill:#f1742d; stroke:none;" d="M208 325L209 326L208 325z"/>
<path style="fill:#563611; stroke:none;" d="M197 326L198 327L197 326M209 326L210 327L209 326M429 326L430 327L429 326z"/>
<path style="fill:#f1742d; stroke:none;" d="M198 327L199 328L198 327z"/>
<path style="fill:#563611; stroke:none;" d="M210 327L211 328L210 327M200 328L201 329L200 328M211 328L212 329L211 328M430 328L431 329L430 328z"/>
<path style="fill:#f1742d; stroke:none;" d="M201 329L202 330L201 329z"/>
<path style="fill:#563611; stroke:none;" d="M212 329L213 330L212 329z"/>
<path style="fill:#f1742d; stroke:none;" d="M153 330L154 331L153 330z"/>
<path style="fill:#563611; stroke:none;" d="M213 330L214 331L213 330M153 331L153 334L154 334L153 331M204 331L205 332L204 331M432 331L433 332L432 331z"/>
<path style="fill:#f1742d; stroke:none;" d="M205 332L206 333L205 332z"/>
<path style="fill:#563611; stroke:none;" d="M207 333L208 334L207 333z"/>
<path style="fill:#f1742d; stroke:none;" d="M216 333L217 334L216 333z"/>
<path style="fill:#563611; stroke:none;" d="M433 333L434 334L433 333M208 334L209 335L208 334M215 334L216 335L215 334z"/>
<path style="fill:#f1742d; stroke:none;" d="M209 335L210 336L209 335M215 335L216 336L215 335z"/>
<path style="fill:#563611; stroke:none;" d="M434 335L435 336L434 335z"/>
<path style="fill:#f1742d; stroke:none;" d="M210 336L210 343L211 343L210 336z"/>
<path style="fill:#563611; stroke:none;" d="M214 336L215 337L214 336M154 337L154 340L155 340L154 337M435 337L436 338L435 337M213 338L214 339L213 338M436 339L437 340L436 339z"/>
<path style="fill:#f1742d; stroke:none;" d="M212 340L213 341L212 340z"/>
<path style="fill:#563611; stroke:none;" d="M211 341L212 342L211 341M437 341L438 342L437 341z"/>
<path style="fill:#f1742d; stroke:none;" d="M155 343L156 344L155 343z"/>
<path style="fill:#563611; stroke:none;" d="M438 343L439 344L438 343M155 344L155 347L156 347L155 344M439 345L440 346L439 345M440 347L441 348L440 347z"/>
<path style="fill:#f1742d; stroke:none;" d="M272 348L272 349L279 349L272 348M271.333 349.667L271.667 350.333L271.333 349.667z"/>
<path style="fill:#563611; stroke:none;" d="M281 349L281 350L284 350L281 349z"/>
<path style="fill:#f1742d; stroke:none;" d="M284 349L285 350L284 349M156 350L157 351L156 350z"/>
<path style="fill:#563611; stroke:none;" d="M286.667 350.333L287.333 350.667L286.667 350.333z"/>
<path style="fill:#f1742d; stroke:none;" d="M288 350L289 351L288 350z"/>
<path style="fill:#563611; stroke:none;" d="M441 350L442 351L441 350M156 351L156 354L157 354L156 351M290 351L291 352L290 351z"/>
<path style="fill:#f1742d; stroke:none;" d="M291 351L292 352L291 351z"/>
<path style="fill:#563611; stroke:none;" d="M292 352L293 353L292 352z"/>
<path style="fill:#f1742d; stroke:none;" d="M293 352L294 353L293 352z"/>
<path style="fill:#563611; stroke:none;" d="M442.333 352.667L442.667 353.333L442.333 352.667M272 353L272 356L273 356L272 353M294 353L295 354L294 353z"/>
<path style="fill:#f1742d; stroke:none;" d="M295 353L296 354L295 353z"/>
<path style="fill:#563611; stroke:none;" d="M296 354L297 355L296 354z"/>
<path style="fill:#f1742d; stroke:none;" d="M297 354L298 355L297 354z"/>
<path style="fill:#563611; stroke:none;" d="M298 355L299 356L298 355M443 355L444 356L443 355z"/>
<path style="fill:#f1742d; stroke:none;" d="M272.333 356.667L272.667 357.333L272.333 356.667z"/>
<path style="fill:#563611; stroke:none;" d="M299 356L300 357L299 356z"/>
<path style="fill:#f1742d; stroke:none;" d="M300 356L301 357L300 356M157 357L158 358L157 357z"/>
<path style="fill:#563611; stroke:none;" d="M301 357L302 358L301 357M157 358L157 361L158 361L157 358M302 358L303 359L302 358M444 358L445 359L444 358M303 359L304 360L303 359z"/>
<path style="fill:#f1742d; stroke:none;" d="M304 359L305 360L304 359z"/>
<path style="fill:#563611; stroke:none;" d="M273 360L273 363L274 363L273 360z"/>
<path style="fill:#f1742d; stroke:none;" d="M305 360L306 361L305 360M306 361L307 362L306 361z"/>
<path style="fill:#563611; stroke:none;" d="M445 361L446 362L445 361z"/>
<path style="fill:#f1742d; stroke:none;" d="M307 362L308 363L307 362M273.333 363.667L273.667 364.333L273.333 363.667M308 363L309 364L308 363z"/>
<path style="fill:#563611; stroke:none;" d="M158 364L158 367L159 367L158 364z"/>
<path style="fill:#f1742d; stroke:none;" d="M309 364L310 365L309 364z"/>
<path style="fill:#563611; stroke:none;" d="M446 364L447 365L446 364z"/>
<path style="fill:#f1742d; stroke:none;" d="M310 365L311 366L310 365z"/>
<path style="fill:#563611; stroke:none;" d="M274 366L274 370L275 370L274 366z"/>
<path style="fill:#f1742d; stroke:none;" d="M311 366L312 367L311 366M312 367L314 369L312 367z"/>
<path style="fill:#563611; stroke:none;" d="M447 367L448 368L447 367M312 368L313 369L312 368M313 369L314 370L313 369z"/>
<path style="fill:#f1742d; stroke:none;" d="M159 370L160 371L159 370M274.333 370.667L274.667 371.333L274.333 370.667z"/>
<path style="fill:#563611; stroke:none;" d="M314 370L315 371L314 370M448.333 370.667L448.667 371.333L448.333 370.667M159 371L159 374L160 374L159 371z"/>
<path style="fill:#f1742d; stroke:none;" d="M315 371L316 372L315 371M316 372L317 373L316 372z"/>
<path style="fill:#563611; stroke:none;" d="M275 373L275 376L276 376L275 373M316 373L317 374L316 373M449.333 373.667L449.667 374.333L449.333 373.667M317 374L318 375L317 374z"/>
<path style="fill:#f1742d; stroke:none;" d="M318 375L319 376L318 375M275.333 376.667L275.667 377.333L275.333 376.667z"/>
<path style="fill:#563611; stroke:none;" d="M318 376L319 377L318 376M450.333 376.667L450.667 377.333L450.333 376.667z"/>
<path style="fill:#f1742d; stroke:none;" d="M160 377L161 378L160 377z"/>
<path style="fill:#563611; stroke:none;" d="M319 377L320 378L319 377M160 378L160 381L161 381L160 378z"/>
<path style="fill:#f1742d; stroke:none;" d="M320 378L321 379L320 378z"/>
<path style="fill:#563611; stroke:none;" d="M320 379L321 380L320 379M276 380L276 383L277 383L276 380z"/>
<path style="fill:#f1742d; stroke:none;" d="M321 380L322 381L321 380z"/>
<path style="fill:#563611; stroke:none;" d="M451 380L452 381L451 380M322 382L323 383L322 382z"/>
<path style="fill:#f1742d; stroke:none;" d="M276.333 383.667L276.667 384.333L276.333 383.667M323 383L324 384L323 383z"/>
<path style="fill:#563611; stroke:none;" d="M452.333 383.667L452.667 384.333L452.333 383.667z"/>
<path style="fill:#f1742d; stroke:none;" d="M161 384L162 385L161 384z"/>
<path style="fill:#563611; stroke:none;" d="M323 384L324 385L323 384M161 385L161 388L162 388L161 385z"/>
<path style="fill:#f1742d; stroke:none;" d="M324 385L325 386L324 385z"/>
<path style="fill:#563611; stroke:none;" d="M324 386L325 387L324 386M453.333 386.667L453.667 387.333L453.333 386.667M277 387L277 390L278 390L277 387z"/>
<path style="fill:#f1742d; stroke:none;" d="M325 387L326 388L325 387z"/>
<path style="fill:#563611; stroke:none;" d="M325 388L326 389L325 388z"/>
<path style="fill:#f1742d; stroke:none;" d="M326 389L327 390L326 389M277.333 390.667L277.667 391.333L277.333 390.667z"/>
<path style="fill:#563611; stroke:none;" d="M326 390L327 391L326 390M454.333 390.667L454.667 391.333L454.333 390.667M162 391L162 394L163 394L162 391z"/>
<path style="fill:#f1742d; stroke:none;" d="M327 391L328 392L327 391z"/>
<path style="fill:#563611; stroke:none;" d="M327 392L328 393L327 392M278 393L278 397L279 397L278 393z"/>
<path style="fill:#f1742d; stroke:none;" d="M328 393L329 394L328 393z"/>
<path style="fill:#563611; stroke:none;" d="M455.333 393.667L455.667 394.333L455.333 393.667M328 394L329 395L328 394z"/>
<path style="fill:#f1742d; stroke:none;" d="M329 395L330 396L329 395z"/>
<path style="fill:#563611; stroke:none;" d="M329 396L330 397L329 396z"/>
<path style="fill:#f1742d; stroke:none;" d="M163 397L164 398L163 397M278.333 397.667L278.667 398.333L278.333 397.667M330 397L331 398L330 397z"/>
<path style="fill:#563611; stroke:none;" d="M456.333 397.667L456.667 398.333L456.333 397.667M163 398L163 401L164 401L163 398M330 398L331 399L330 398M279 400L279 403L280 403L279 400M457.333 400.667L457.667 401.333L457.333 400.667M331 401L332 402L331 401z"/>
<path style="fill:#f1742d; stroke:none;" d="M279.333 403.667L279.667 404.333L279.333 403.667z"/>
<path style="fill:#563611; stroke:none;" d="M332 403L333 404L332 403z"/>
<path style="fill:#f1742d; stroke:none;" d="M164 404L165 405L164 404z"/>
<path style="fill:#563611; stroke:none;" d="M458.333 404.667L458.667 405.333L458.333 404.667M164 405L164 408L165 408L164 405M333 406L334 407L333 406M280 407L280 410L281 410L280 407M459.333 407.667L459.667 408.333L459.333 407.667M334.333 408.667L334.667 409.333L334.333 408.667z"/>
<path style="fill:#f1742d; stroke:none;" d="M280.333 410.667L280.667 411.333L280.333 410.667M165 411L166 412L165 411z"/>
<path style="fill:#563611; stroke:none;" d="M335 411L336 412L335 411M460.333 411.667L460.667 412.333L460.333 411.667M165 412L165 415L166 415L165 412M281 414L281 417L282 417L281 414M336 414L337 415L336 414M461.333 414.667L461.667 415.333L461.333 414.667z"/>
<path style="fill:#f1742d; stroke:none;" d="M281.333 417.667L281.667 418.333L281.333 417.667z"/>
<path style="fill:#563611; stroke:none;" d="M337.333 417.667L337.667 418.333L337.333 417.667M166 418L166 421L167 421L166 418M462.333 418.667L462.667 419.333L462.333 418.667M282 420L282 424L283 424L282 420M338.333 420.667L338.667 421.333L338.333 420.667M463 422L464 423L463 422z"/>
<path style="fill:#f1742d; stroke:none;" d="M167 424L168 425L167 424M282.333 424.667L282.667 425.333L282.333 424.667z"/>
<path style="fill:#563611; stroke:none;" d="M339 424L340 425L339 424M167 425L167 428L168 428L167 425M464.333 425.667L464.667 426.333L464.333 425.667M283 427L283 430L284 430L283 427M340.333 427.667L340.667 428.333L340.333 427.667M465.333 429.667L465.667 430.333L465.333 429.667z"/>
<path style="fill:#f1742d; stroke:none;" d="M283.333 430.667L283.667 431.333L283.333 430.667M168 431L169 432L168 431z"/>
<path style="fill:#563611; stroke:none;" d="M341.333 431.667L341.667 432.333L341.333 431.667M168 432L168 435L169 435L168 432M466 433L467 434L466 433M284 434L284 437L285 437L284 434M342.333 435.667L342.667 436.333L342.333 435.667M467.333 436.667L467.667 437.333L467.333 436.667z"/>
<path style="fill:#f1742d; stroke:none;" d="M284.333 437.667L284.667 438.333L284.333 437.667M169 438L170 439L169 438z"/>
<path style="fill:#563611; stroke:none;" d="M169 439L169 442L170 442L169 439M343.333 439.667L343.667 440.333L343.333 439.667M468.333 440.667L468.667 441.333L468.333 440.667M285 441L285 444L286 444L285 441M344.333 443.667L344.667 444.333L344.333 443.667z"/>
<path style="fill:#f1742d; stroke:none;" d="M285.333 444.667L285.667 445.333L285.333 444.667z"/>
<path style="fill:#563611; stroke:none;" d="M469.333 444.667L469.667 445.333L469.333 444.667M170 445L170 448L171 448L170 445M286 447L286 451L287 451L286 447M470.333 447.667L470.667 448.333L470.333 447.667M345.333 448.667L345.667 449.333L345.333 448.667z"/>
<path style="fill:#f1742d; stroke:none;" d="M171 451L172 452L171 451M286.333 451.667L286.667 452.333L286.333 451.667z"/>
<path style="fill:#563611; stroke:none;" d="M471.333 451.667L471.667 452.333L471.333 451.667M171 452L171 455L172 455L171 452M346.333 453.667L346.667 454.333L346.333 453.667M287 454L287 457L288 457L287 454M472 456L472 459L473 459L472 456z"/>
<path style="fill:#f1742d; stroke:none;" d="M287.333 457.667L287.667 458.333L287.333 457.667M172 458L173 459L172 458z"/>
<path style="fill:#563611; stroke:none;" d="M347 458L347 461L348 461L347 458M172 459L172 462L173 462L172 459M467 459L467 460L470 460L467 459M460 460L460 461L464 461L460 460M288 461L288 464L289 464L288 461M453 461L453 462L457 462L453 461M447 462L447 463L450 463L447 462M440 463L440 464L443 464L440 463z"/>
<path style="fill:#f1742d; stroke:none;" d="M288.333 464.667L288.667 465.333L288.333 464.667z"/>
<path style="fill:#563611; stroke:none;" d="M348 464L348 467L349 467L348 464M433 464L433 465L437 465L433 464z"/>
<path style="fill:#f1742d; stroke:none;" d="M173 465L174 466L173 465z"/>
<path style="fill:#563611; stroke:none;" d="M426 465L426 466L430 466L426 465M173 466L173 469L174 469L173 466M420 466L420 467L423 467L420 466M413 467L413 468L416 468L413 467M289 468L289 471L290 471L289 468M406 468L406 469L410 469L406 468M400 469L400 470L403 470L400 469M349 470L349 473L350 473L349 470M393 470L393 471L396 471L393 470z"/>
<path style="fill:#f1742d; stroke:none;" d="M289.333 471.667L289.667 472.333L289.333 471.667z"/>
<path style="fill:#563611; stroke:none;" d="M386 471L386 472L389 472L386 471M174 472L174 475L175 475L174 472M379 472L379 473L383 473L379 472M373 473L373 474L376 474L373 473M290 474L290 478L291 478L290 474M366 474L366 475L369 475L366 474M359 475L359 476L362 476L359 475M350 476L351 477L350 476M352 476L352 477L356 477L352 476z"/>
<path style="fill:#f1742d; stroke:none;" d="M175 478L176 479L175 478M290.333 478.667L290.667 479.333L290.333 478.667z"/>
<path style="fill:#563611; stroke:none;" d="M175 479L175 482L176 482L175 479M291 481L291 484L292 484L291 481z"/>
<path style="fill:#f1742d; stroke:none;" d="M291 484L290 486L291 484M176 485L177 486L176 485z"/>
<path style="fill:#563611; stroke:none;" d="M291 485L292 486L291 485M176 486L176 489L177 489L176 486z"/>
<path style="fill:#f1742d; stroke:none;" d="M283.667 486.333L284.333 486.667L283.667 486.333z"/>
<path style="fill:#563611; stroke:none;" d="M285 486L285 487L288 487L285 486z"/>
<path style="fill:#f1742d; stroke:none;" d="M276.667 487.333L277.333 487.667L276.667 487.333z"/>
<path style="fill:#563611; stroke:none;" d="M278 487L278 488L282 488L278 487z"/>
<path style="fill:#f1742d; stroke:none;" d="M270.667 488.333L271.333 488.667L270.667 488.333z"/>
<path style="fill:#563611; stroke:none;" d="M272 488L272 489L275 489L272 488z"/>
<path style="fill:#f1742d; stroke:none;" d="M263.667 489.333L264.333 489.667L263.667 489.333z"/>
<path style="fill:#563611; stroke:none;" d="M265 489L265 490L268 490L265 489z"/>
<path style="fill:#f1742d; stroke:none;" d="M256.667 490.333L257.333 490.667L256.667 490.333z"/>
<path style="fill:#563611; stroke:none;" d="M258 490L258 491L261 491L258 490z"/>
<path style="fill:#f1742d; stroke:none;" d="M250 491L251 492L250 491z"/>
<path style="fill:#563611; stroke:none;" d="M251 491L251 492L255 492L251 491z"/>
<path style="fill:#f1742d; stroke:none;" d="M177 492L178 493L177 492M243.667 492.333L244.333 492.667L243.667 492.333z"/>
<path style="fill:#563611; stroke:none;" d="M245 492L245 493L248 493L245 492M177 493L177 496L178 496L177 493z"/>
<path style="fill:#f1742d; stroke:none;" d="M236.667 493.333L237.333 493.667L236.667 493.333z"/>
<path style="fill:#563611; stroke:none;" d="M238 493L238 494L241 494L238 493z"/>
<path style="fill:#f1742d; stroke:none;" d="M230 494L231 495L230 494z"/>
<path style="fill:#563611; stroke:none;" d="M231 494L231 495L234 495L231 494z"/>
<path style="fill:#f1742d; stroke:none;" d="M223 495L224 496L223 495z"/>
<path style="fill:#563611; stroke:none;" d="M224 495L224 496L228 496L224 495z"/>
<path style="fill:#f1742d; stroke:none;" d="M216.667 496.333L217.333 496.667L216.667 496.333z"/>
<path style="fill:#563611; stroke:none;" d="M218 496L218 497L221 497L218 496z"/>
<path style="fill:#f1742d; stroke:none;" d="M209.667 497.333L210.333 497.667L209.667 497.333z"/>
<path style="fill:#563611; stroke:none;" d="M211 497L211 498L214 498L211 497z"/>
<path style="fill:#f1742d; stroke:none;" d="M203 498L204 499L203 498z"/>
<path style="fill:#563611; stroke:none;" d="M204 498L204 499L207 499L204 498M178 499L178 502L179 502L178 499z"/>
<path style="fill:#f1742d; stroke:none;" d="M196.667 499.333L197.333 499.667L196.667 499.333z"/>
<path style="fill:#563611; stroke:none;" d="M198 499L198 500L201 500L198 499z"/>
<path style="fill:#f1742d; stroke:none;" d="M190 500L191 501L190 500z"/>
<path style="fill:#563611; stroke:none;" d="M191 500L191 501L194 501L191 500z"/>
<path style="fill:#f1742d; stroke:none;" d="M183 501L184 502L183 501z"/>
<path style="fill:#563611; stroke:none;" d="M184 501L184 502L187 502L184 501M179 502L180 503L179 502z"/>
</svg>
