<svg width="146" height="28" viewBox="0 0 146 28" fill="none" xmlns="http://www.w3.org/2000/svg">
<g clip-path="url(#clip0_300_73)">
<path d="M35.1272 21.5053C36.4587 21.5053 37.4635 21.1911 38.1417 20.5628C38.8198 19.9345 39.1589 19.0915 39.1589 18.034C39.1589 17.2128 38.9349 16.5409 38.487 16.0184C38.039 15.4958 37.535 15.1972 36.9751 15.1225V15.0479C37.2737 14.9981 37.5786 14.8395 37.8897 14.572C38.2008 14.3045 38.431 13.9841 38.5803 13.6108C38.7296 13.2376 38.8043 12.8581 38.8043 12.4724C38.8043 11.4272 38.4683 10.5874 37.7964 9.95285C37.1244 9.3183 36.2285 9.00103 35.1086 9.00103H28.9491V21.5053H35.1272ZM34.6606 14.2267H31.4876V11.1659H34.8286C35.2392 11.1659 35.5939 11.3028 35.8925 11.5765C36.1912 11.8503 36.3405 12.1986 36.3405 12.6217C36.3405 13.0945 36.1849 13.4802 35.8739 13.7788C35.5628 14.0774 35.1584 14.2267 34.6606 14.2267ZM34.8473 19.3404H31.4876V16.2423H34.9406C35.4134 16.2423 35.8023 16.3854 36.1072 16.6716C36.412 16.9577 36.5645 17.331 36.5645 17.7914C36.5645 18.2642 36.4151 18.6405 36.1165 18.9205C35.8179 19.2004 35.3948 19.3404 34.8473 19.3404ZM43.9621 21.5053V8.06787H41.4983V21.5053H43.9621ZM50.6504 21.7853C51.8699 21.7853 52.8964 21.4493 53.7301 20.7774V21.5053H56.1939V12.1924H53.7301V12.9389C52.9089 12.2546 51.8823 11.9125 50.6504 11.9125C50.0656 11.9125 49.4621 12.0493 48.8399 12.3231C48.2177 12.5968 47.6858 13.0074 47.244 13.5548C46.8023 14.1023 46.4974 14.6591 46.3294 15.2252C46.1614 15.7913 46.0774 16.3356 46.0774 16.8582C46.0774 17.555 46.2019 18.2113 46.4507 18.8272C46.6996 19.443 47.0387 19.9718 47.468 20.4135C47.8973 20.8552 48.3888 21.1943 48.9425 21.4307C49.4963 21.6671 50.0656 21.7853 50.6504 21.7853ZM51.0797 19.639C50.6193 19.639 50.1775 19.527 49.7545 19.3031C49.3314 19.0791 49.011 18.7463 48.7932 18.3046C48.5755 17.8629 48.4666 17.3808 48.4666 16.8582C48.4666 16.0121 48.7123 15.334 49.2038 14.8239C49.6954 14.3138 50.3206 14.0587 51.0797 14.0587C51.3908 14.0587 51.7547 14.1458 52.1716 14.32C52.5885 14.4942 52.9524 14.8084 53.2635 15.2625C53.5746 15.7166 53.7301 16.2485 53.7301 16.8582C53.7301 17.2688 53.6555 17.6483 53.5062 17.9966C53.3568 18.345 53.1609 18.6374 52.9182 18.8738C52.6756 19.1102 52.3863 19.2968 52.0503 19.4337C51.7143 19.5706 51.3908 19.639 51.0797 19.639ZM63.2929 21.7853C64.4128 21.7853 65.4052 21.4649 66.27 20.8241C67.1348 20.1833 67.6979 19.3404 67.9592 18.2953L65.682 17.7167C65.5825 18.0153 65.4301 18.3108 65.2247 18.6032C65.0194 18.8956 64.7488 19.1227 64.4128 19.2844C64.0768 19.4461 63.7035 19.527 63.2929 19.527C62.5214 19.527 61.8961 19.2813 61.4171 18.7898C60.938 18.2984 60.6984 17.6545 60.6984 16.8582C60.6984 16.0619 60.938 15.4149 61.4171 14.9172C61.8961 14.4195 62.5214 14.1707 63.2929 14.1707C63.8529 14.1707 64.335 14.3231 64.7394 14.628C65.1439 14.9328 65.4269 15.3963 65.5887 16.0184L67.9592 15.3465C67.7725 14.7119 67.4894 14.1676 67.1099 13.7135C66.7304 13.2593 66.3229 12.8985 65.8873 12.631C65.4518 12.3635 65.007 12.1769 64.5528 12.0711C64.0986 11.9654 63.6786 11.9125 63.2929 11.9125C62.6334 11.9125 61.9988 12.0338 61.3891 12.2764C60.7793 12.519 60.2723 12.8301 59.8678 13.2096C59.4634 13.589 59.1461 13.9934 58.9159 14.4227C58.6857 14.8519 58.5271 15.2812 58.44 15.7104C58.3529 16.1397 58.3093 16.5223 58.3093 16.8582C58.3093 17.5674 58.44 18.2268 58.7013 18.8365C58.9626 19.4461 59.3235 19.9718 59.7839 20.4135C60.2443 20.8552 60.7762 21.1943 61.3797 21.4307C61.9832 21.6671 62.621 21.7853 63.2929 21.7853ZM72.5383 21.5053V17.866H72.9676L76.626 21.5053H79.9111L74.9275 16.6529L79.4258 12.1924H76.3274L72.9863 15.4398H72.5383V8.06787H70.0746V21.5053H72.5383ZM85.1435 21.7853C86.2634 21.7853 87.2558 21.4649 88.1206 20.8241C88.9854 20.1833 89.5485 19.3404 89.8098 18.2953L87.5327 17.7167C87.4331 18.0153 87.2807 18.3108 87.0754 18.6032C86.87 18.8956 86.5994 19.1227 86.2634 19.2844C85.9275 19.4461 85.5541 19.527 85.1435 19.527C84.372 19.527 83.7467 19.2813 83.2677 18.7898C82.7886 18.2984 82.5491 17.6545 82.5491 16.8582C82.5491 16.0619 82.7886 15.4149 83.2677 14.9172C83.7467 14.4195 84.372 14.1707 85.1435 14.1707C85.7035 14.1707 86.1857 14.3231 86.5901 14.628C86.9945 14.9328 87.2776 15.3963 87.4393 16.0184L89.8098 15.3465C89.6231 14.7119 89.3401 14.1676 88.9605 13.7135C88.581 13.2593 88.1735 12.8985 87.738 12.631C87.3024 12.3635 86.8576 12.1769 86.4034 12.0711C85.9492 11.9654 85.5293 11.9125 85.1435 11.9125C84.484 11.9125 83.8494 12.0338 83.2397 12.2764C82.63 12.519 82.1229 12.8301 81.7185 13.2096C81.3141 13.589 80.9967 13.9934 80.7665 14.4227C80.5363 14.8519 80.3777 15.2812 80.2906 15.7104C80.2035 16.1397 80.1599 16.5223 80.1599 16.8582C80.1599 17.5674 80.2906 18.2268 80.5519 18.8365C80.8132 19.4461 81.1741 19.9718 81.6345 20.4135C82.0949 20.8552 82.6268 21.1943 83.2303 21.4307C83.8338 21.6671 84.4716 21.7853 85.1435 21.7853ZM96.2555 21.7479C96.9274 21.7479 97.5683 21.6297 98.178 21.3933C98.7877 21.1569 99.3259 20.821 99.7925 20.3855C100.259 19.9501 100.623 19.4306 100.884 18.8272C101.146 18.2237 101.276 17.5674 101.276 16.8582C101.276 16.149 101.146 15.4927 100.884 14.8892C100.623 14.2858 100.259 13.7663 99.7925 13.3309C99.3259 12.8954 98.7877 12.5595 98.178 12.3231C97.5683 12.0867 96.9274 11.9685 96.2555 11.9685C95.5711 11.9685 94.8805 12.1022 94.1836 12.3697C93.4868 12.6372 92.8989 13.0416 92.4198 13.5828C91.9407 14.1241 91.6141 14.6746 91.4399 15.2345C91.2657 15.7944 91.1786 16.3356 91.1786 16.8582C91.1786 17.5674 91.3092 18.2237 91.5705 18.8272C91.8318 19.4306 92.1989 19.9501 92.6718 20.3855C93.1446 20.821 93.689 21.1569 94.305 21.3933C94.9209 21.6297 95.5711 21.7479 96.2555 21.7479ZM96.2555 19.639C95.9444 19.639 95.5773 19.555 95.1542 19.387C94.7312 19.2191 94.361 18.9111 94.0437 18.4632C93.7264 18.0153 93.5677 17.4803 93.5677 16.8582C93.5677 16.2361 93.7264 15.7011 94.0437 15.2532C94.361 14.8053 94.7312 14.4973 95.1542 14.3293C95.5773 14.1614 95.9444 14.0774 96.2555 14.0774C96.5541 14.0774 96.9119 14.1614 97.3287 14.3293C97.7456 14.4973 98.1095 14.8053 98.4206 15.2532C98.7317 15.7011 98.8873 16.2361 98.8873 16.8582C98.8873 17.4803 98.7317 18.0153 98.4206 18.4632C98.1095 18.9111 97.7456 19.2191 97.3287 19.387C96.9119 19.555 96.5541 19.639 96.2555 19.639ZM105.856 24.678V20.7774C106.689 21.4493 107.716 21.7853 108.935 21.7853C109.52 21.7853 110.089 21.6671 110.643 21.4307C111.197 21.1943 111.688 20.8552 112.118 20.4135C112.547 19.9718 112.886 19.443 113.135 18.8272C113.384 18.2113 113.508 17.555 113.508 16.8582C113.508 16.1614 113.384 15.5051 113.135 14.8892C112.886 14.2734 112.547 13.7446 112.118 13.3029C111.688 12.8612 111.197 12.519 110.643 12.2764C110.089 12.0338 109.52 11.9125 108.935 11.9125C107.703 11.9125 106.677 12.2546 105.856 12.9389V12.1924H103.392V24.678H105.856ZM108.506 19.639C108.195 19.639 107.853 19.5643 107.479 19.415C107.106 19.2657 106.792 19.0387 106.537 18.7338C106.282 18.429 106.104 18.118 106.005 17.8007C105.905 17.4834 105.856 17.1692 105.856 16.8582C105.856 16.2485 106.011 15.7166 106.322 15.2625C106.633 14.8084 106.997 14.4942 107.414 14.32C107.831 14.1458 108.195 14.0587 108.506 14.0587C109.265 14.0587 109.89 14.3138 110.382 14.8239C110.873 15.334 111.119 16.0121 111.119 16.8582C111.119 17.4803 110.988 17.9998 110.727 18.4166C110.466 18.8334 110.145 19.1413 109.766 19.3404C109.386 19.5395 108.966 19.639 108.506 19.639ZM118.087 24.678V20.7774C118.921 21.4493 119.948 21.7853 121.167 21.7853C121.752 21.7853 122.321 21.6671 122.875 21.4307C123.429 21.1943 123.92 20.8552 124.35 20.4135C124.779 19.9718 125.118 19.443 125.367 18.8272C125.616 18.2113 125.74 17.555 125.74 16.8582C125.74 16.1614 125.616 15.5051 125.367 14.8892C125.118 14.2734 124.779 13.7446 124.35 13.3029C123.92 12.8612 123.429 12.519 122.875 12.2764C122.321 12.0338 121.752 11.9125 121.167 11.9125C119.935 11.9125 118.909 12.2546 118.087 12.9389V12.1924H115.624V24.678H118.087ZM120.738 19.639C120.427 19.639 120.085 19.5643 119.711 19.415C119.338 19.2657 119.024 19.0387 118.769 18.7338C118.514 18.429 118.336 18.118 118.237 17.8007C118.137 17.4834 118.087 17.1692 118.087 16.8582C118.087 16.2485 118.243 15.7166 118.554 15.2625C118.865 14.8084 119.229 14.4942 119.646 14.32C120.063 14.1458 120.427 14.0587 120.738 14.0587C121.497 14.0587 122.122 14.3138 122.614 14.8239C123.105 15.334 123.351 16.0121 123.351 16.8582C123.351 17.4803 123.22 17.9998 122.959 18.4166C122.698 18.8334 122.377 19.1413 121.998 19.3404C121.618 19.5395 121.198 19.639 120.738 19.639ZM131.887 21.7853C132.92 21.7853 133.831 21.5426 134.622 21.0574C135.412 20.5722 136.006 19.8567 136.404 18.9111L134.202 18.4446C133.978 18.8303 133.688 19.132 133.334 19.3497C132.979 19.5675 132.497 19.6763 131.887 19.6763C131.477 19.6763 131.091 19.5643 130.73 19.3404C130.369 19.1164 130.098 18.8334 129.918 18.4912C129.738 18.1491 129.616 17.8225 129.554 17.5114H136.647V16.6716C136.622 15.9873 136.482 15.3496 136.227 14.7586C135.972 14.1676 135.626 13.6606 135.191 13.2376C134.755 12.8145 134.255 12.4879 133.688 12.2577C133.122 12.0276 132.534 11.9125 131.924 11.9125C131.277 11.9125 130.658 12.0338 130.067 12.2764C129.476 12.519 128.96 12.8612 128.518 13.3029C128.076 13.7446 127.731 14.2702 127.482 14.8799C127.233 15.4896 127.109 16.149 127.109 16.8582C127.109 17.5674 127.233 18.2268 127.482 18.8365C127.731 19.4461 128.073 19.9718 128.509 20.4135C128.944 20.8552 129.454 21.1943 130.039 21.4307C130.624 21.6671 131.24 21.7853 131.887 21.7853ZM134.127 15.7757H129.629C129.691 15.5145 129.822 15.2469 130.021 14.9732C130.22 14.6995 130.497 14.4786 130.851 14.3107C131.206 14.1427 131.564 14.0587 131.924 14.0587C132.435 14.0587 132.892 14.2049 133.296 14.4973C133.701 14.7897 133.978 15.2158 134.127 15.7757ZM141.226 21.5053V18.5006C141.226 15.8379 142.333 14.5066 144.548 14.5066H145.09L145.22 12.1364C145.071 12.0867 144.853 12.0618 144.567 12.0618C143.858 12.0618 143.22 12.2266 142.654 12.5563C142.088 12.8861 141.612 13.3309 141.226 13.8908V12.1924H138.762V21.5053H141.226Z" fill="white"/>
<path fill-rule="evenodd" clip-rule="evenodd" d="M0 0L4.95016 2.28592V8.2293L11.8574 4.80043L23.2542 10.6295V16.0014L11.8574 21.8305L0 16.0014V0ZM11.8574 10.4009L6.44672 13.2583L11.8574 16.23L17.268 13.2583L11.8574 10.4009Z" fill="white"/>
<path fill-rule="evenodd" clip-rule="evenodd" d="M0 18.0339L11.8088 23.7297L23.2542 18.0339V22.3043L11.8088 28L0 22.3043L0 18.0339Z" fill="#F6AB5A"/>
</g>
<defs>
<clipPath id="clip0_300_73">
<rect width="145.22" height="28" fill="white"/>
</clipPath>
</defs>
</svg>
